# xmcd
#
# Track frame offsets: 
#        150
#        15913
#        27939
#        46405
#        60124
#        74771
#        88429
#        110697
#        125394
#        137155
#        149769
#        167477
#        190950
#        207406
#        220360
#        235080
#        252915
#        270806
#        288173
#        313257
#
# Disc length: 4414 seconds
#
# Revision: 0
# Processed by: cddbd v1.5.2PL0 Copyright (c) Steve Scherf et al.
# Submitted via: ExactAudioCopy v0.99pb5
#
DISCID=2e113c14
DTITLE=Various Artist - 100 Megahits - Country - CD 4
DYEAR=2011
DGENRE=Country
TTITLE0=Willie Nelson - Always on my mind
TTITLE1=Tammy Wynette - Stand by your man
TTITLE2=Miranda Lambert - Famous in a small town
TTITLE3=Patty Loveless - Here I am
TTITLE4=Rasanne Cash - Seven year ache
TTITLE5=Tracy Byrd - Ten rounds with Jose Cuervo
TTITLE6=Kinleys - I'm in
TTITLE7=Ricochet - H e left a lot to be desired
TTITLE8=Skeeter Davis - The end of the world
TTITLE9=Pam Tillis - Put yourself in my place
TTITLE10=Kenny Chesney - Young
TTITLE11=Martina McBride - Love's the only house
TTITLE12=Ronnie Milsap - Any day now
TTITLE13=Tanya Tucker - Delta dawn
TTITLE14=Rodney Crowell - I couldn't leave you if I tried
TTITLE15=Pat Green - Feeling pretty good tonight
TTITLE16=Montgomery Gentry - Back when I knew it all
TTITLE17=Lonestar - With me
TTITLE18=Sara Evans - Born to fly
TTITLE19=Kellie Coffey with Richie McDonald - Outside looking in
EXTD=
EXTT0=
EXTT1=
EXTT2=
EXTT3=
EXTT4=
EXTT5=
EXTT6=
EXTT7=
EXTT8=
EXTT9=
EXTT10=
EXTT11=
EXTT12=
EXTT13=
EXTT14=
EXTT15=
EXTT16=
EXTT17=
EXTT18=
EXTT19=
PLAYORDER=
